<svg width="425" height="200" viewBox="0 0 425 200" fill="none" xmlns="http://www.w3.org/2000/svg">
  <path d="M154 0H46C20.5949 0 0 20.5949 0 46V154C0 179.405 20.5949 200 46 200H154C179.405 200 200 179.405 200 154V46C200 20.5949 179.405 0 154 0Z" fill="#085041"/>
  <path d="M79.4788 43.6184C79.4788 43.6184 59.1545 75.492 71.8092 110.261C82.0698 138.451 104.885 151.431 118.127 149.804C129.317 142.538 138.451 117.93 128.191 89.7394C115.536 54.9707 79.4788 43.6184 79.4788 43.6184Z" fill="white"/>
  <path d="M80.5049 46.4375L117.101 146.985" stroke="#085041" stroke-width="3.5" stroke-linecap="round"/>
  <path d="M93.1596 81.2061C86.4436 97.8396 82.8598 113.333 82.4084 127.686" stroke="#085041" stroke-width="1.8" stroke-linecap="round"/>
  <path d="M93.1596 81.2061C108.996 89.6311 121.7 99.1962 131.272 109.901" stroke="#085041" stroke-width="1.8" stroke-linecap="round"/>
  <path d="M137 170C140.866 170 144 166.866 144 163C144 159.134 140.866 156 137 156C133.134 156 130 159.134 130 163C130 166.866 133.134 170 137 170Z" fill="#5DCAA5"/>
  <rect x="225" y="140" width="200" height="10" fill="#5DCAA5"/>
  <path d="M237.775 91.48C236.281 91.48 234.948 91.2267 233.775 90.72C232.628 90.1867 231.655 89.4533 230.855 88.52C230.055 87.5867 229.441 86.4533 229.015 85.12C228.615 83.7867 228.415 82.3067 228.415 80.68C228.415 79.0533 228.628 77.5733 229.055 76.24C229.481 74.9067 230.095 73.7733 230.895 72.84C231.695 71.88 232.668 71.1467 233.815 70.64C234.961 70.1333 236.268 69.88 237.735 69.88C239.735 69.88 241.361 70.32 242.615 71.2C243.868 72.08 244.788 73.2267 245.375 74.64L242.815 76C242.441 74.9333 241.815 74.1067 240.935 73.52C240.081 72.9333 239.015 72.64 237.735 72.64C236.801 72.64 235.961 72.8 235.215 73.12C234.495 73.4133 233.881 73.84 233.375 74.4C232.868 74.96 232.481 75.6267 232.215 76.4C231.975 77.1733 231.855 78.0133 231.855 78.92V82.44C231.855 83.3467 231.975 84.1867 232.215 84.96C232.481 85.7333 232.868 86.4 233.375 86.96C233.881 87.52 234.508 87.96 235.255 88.28C236.001 88.5733 236.855 88.72 237.815 88.72C239.201 88.72 240.348 88.4 241.255 87.76C242.161 87.12 242.881 86.24 243.415 85.12L245.695 86.68C245.081 88.0667 244.121 89.2133 242.815 90.12C241.535 91.0267 239.855 91.48 237.775 91.48ZM268.839 91C267.586 91 266.692 90.68 266.159 90.04C265.626 89.4 265.292 88.6 265.159 87.64H264.959C264.506 88.84 263.772 89.7867 262.759 90.48C261.772 91.1467 260.439 91.48 258.759 91.48C256.599 91.48 254.879 90.92 253.599 89.8C252.319 88.68 251.679 87.1467 251.679 85.2C251.679 83.28 252.372 81.8 253.759 80.76C255.172 79.72 257.439 79.2 260.559 79.2H264.959V77.16C264.959 75.64 264.532 74.5067 263.679 73.76C262.826 72.9867 261.612 72.6 260.039 72.6C258.652 72.6 257.519 72.88 256.639 73.44C255.759 73.9733 255.052 74.7067 254.519 75.64L252.359 74.04C252.626 73.5067 252.986 72.9867 253.439 72.48C253.892 71.9733 254.452 71.5333 255.119 71.16C255.786 70.76 256.546 70.4533 257.399 70.24C258.252 70 259.199 69.88 260.239 69.88C262.666 69.88 264.586 70.4933 265.999 71.72C267.439 72.9467 268.159 74.6533 268.159 76.84V88.2H271.039V91H268.839ZM259.319 88.8C260.146 88.8 260.892 88.7067 261.559 88.52C262.252 88.3067 262.852 88.04 263.359 87.72C263.866 87.3733 264.252 86.9733 264.519 86.52C264.812 86.04 264.959 85.5333 264.959 85V81.6H260.559C258.639 81.6 257.239 81.8667 256.359 82.4C255.479 82.9333 255.039 83.7067 255.039 84.72V85.56C255.039 86.6267 255.412 87.44 256.159 88C256.932 88.5333 257.986 88.8 259.319 88.8ZM276.223 88.28H283.423V64.12H276.223V61.4H286.623V88.28H293.823V91H276.223V88.28ZM309.008 91.48C307.568 91.48 306.261 91.2267 305.088 90.72C303.941 90.2133 302.954 89.4933 302.128 88.56C301.328 87.6 300.714 86.4667 300.288 85.16C299.861 83.8267 299.648 82.3333 299.648 80.68C299.648 79.0533 299.861 77.5733 300.288 76.24C300.714 74.9067 301.328 73.7733 302.128 72.84C302.954 71.88 303.941 71.1467 305.088 70.64C306.261 70.1333 307.568 69.88 309.008 69.88C310.448 69.88 311.741 70.1333 312.888 70.64C314.061 71.1467 315.048 71.88 315.848 72.84C316.674 73.7733 317.301 74.9067 317.728 76.24C318.154 77.5733 318.368 79.0533 318.368 80.68C318.368 82.3333 318.154 83.8267 317.728 85.16C317.301 86.4667 316.674 87.6 315.848 88.56C315.048 89.4933 314.061 90.2133 312.888 90.72C311.741 91.2267 310.448 91.48 309.008 91.48ZM309.008 88.72C310.794 88.72 312.234 88.1867 313.328 87.12C314.421 86.0533 314.968 84.4 314.968 82.16V79.2C314.968 76.96 314.421 75.3067 313.328 74.24C312.234 73.1733 310.794 72.64 309.008 72.64C307.221 72.64 305.781 73.1733 304.688 74.24C303.594 75.3067 303.048 76.96 303.048 79.2V82.16C303.048 84.4 303.594 86.0533 304.688 87.12C305.781 88.1867 307.221 88.72 309.008 88.72ZM324.072 88.28H330.112V73.08H324.072V70.36H333.312V75.56H333.512C333.939 73.9333 334.739 72.6667 335.912 71.76C337.112 70.8267 338.632 70.36 340.472 70.36H343.352V73.56H339.472C337.632 73.56 336.139 74.0933 334.992 75.16C333.872 76.2267 333.312 77.6267 333.312 79.36V88.28H341.312V91H324.072V88.28ZM358.257 65.8C357.323 65.8 356.67 65.6133 356.297 65.24C355.923 64.84 355.737 64.3467 355.737 63.76V63.12C355.737 62.5333 355.923 62.0533 356.297 61.68C356.67 61.28 357.323 61.08 358.257 61.08C359.19 61.08 359.843 61.28 360.217 61.68C360.59 62.0533 360.777 62.5333 360.777 63.12V63.76C360.777 64.3467 360.59 64.84 360.217 65.24C359.843 65.6133 359.19 65.8 358.257 65.8ZM349.217 88.28H356.657V73.08H349.217V70.36H359.857V88.28H366.817V91H349.217V88.28ZM381.321 91.48C379.828 91.48 378.481 91.2267 377.281 90.72C376.108 90.2133 375.094 89.4933 374.241 88.56C373.414 87.6 372.774 86.4667 372.321 85.16C371.868 83.8267 371.641 82.3467 371.641 80.72C371.641 79.0667 371.868 77.5733 372.321 76.24C372.801 74.9067 373.454 73.7733 374.281 72.84C375.108 71.88 376.094 71.1467 377.241 70.64C378.414 70.1333 379.708 69.88 381.121 69.88C382.508 69.88 383.761 70.1333 384.881 70.64C386.028 71.1467 387.001 71.8533 387.801 72.76C388.601 73.64 389.214 74.6933 389.641 75.92C390.068 77.1467 390.281 78.4933 390.281 79.96V81.48H375.001V82.44C375.001 83.3467 375.148 84.1867 375.441 84.96C375.734 85.7333 376.148 86.4 376.681 86.96C377.241 87.52 377.908 87.96 378.681 88.28C379.481 88.5733 380.361 88.72 381.321 88.72C382.708 88.72 383.908 88.4 384.921 87.76C385.934 87.12 386.708 86.24 387.241 85.12L389.601 86.72C388.988 88.1067 387.961 89.2533 386.521 90.16C385.108 91.04 383.374 91.48 381.321 91.48ZM381.121 72.52C380.241 72.52 379.428 72.68 378.681 73C377.934 73.32 377.281 73.76 376.721 74.32C376.188 74.88 375.761 75.5467 375.441 76.32C375.148 77.0667 375.001 77.8933 375.001 78.8V79.08H386.841V78.64C386.841 77.7333 386.694 76.9067 386.401 76.16C386.134 75.4133 385.748 74.7733 385.241 74.24C384.761 73.68 384.161 73.2533 383.441 72.96C382.748 72.6667 381.974 72.52 381.121 72.52Z" fill="#085041"/>
  <path d="M235.744 129C234.485 129 233.557 128.648 232.96 127.944C232.384 127.24 232.096 126.333 232.096 125.224V114.664H226.592V112.488H230.688C231.242 112.488 231.626 112.381 231.84 112.168C232.074 111.933 232.192 111.539 232.192 110.984V106.664H234.656V112.488H242.176V114.664H234.656V126.824H242.176V129H235.744ZM246.995 126.824H251.827V114.664H246.995V112.488H254.387V116.648H254.547C254.889 115.347 255.529 114.333 256.467 113.608C257.427 112.861 258.643 112.488 260.115 112.488H262.419V115.048H259.315C257.843 115.048 256.649 115.475 255.731 116.328C254.835 117.181 254.387 118.301 254.387 119.688V126.824H260.787V129H246.995V126.824ZM279.559 129C278.556 129 277.841 128.744 277.415 128.232C276.988 127.72 276.721 127.08 276.615 126.312H276.455C276.092 127.272 275.505 128.029 274.695 128.584C273.905 129.117 272.839 129.384 271.495 129.384C269.767 129.384 268.391 128.936 267.367 128.04C266.343 127.144 265.831 125.917 265.831 124.36C265.831 122.824 266.385 121.64 267.495 120.808C268.625 119.976 270.439 119.56 272.935 119.56H276.455V117.928C276.455 116.712 276.113 115.805 275.431 115.208C274.748 114.589 273.777 114.28 272.519 114.28C271.409 114.28 270.503 114.504 269.799 114.952C269.095 115.379 268.529 115.965 268.103 116.712L266.375 115.432C266.588 115.005 266.876 114.589 267.239 114.184C267.601 113.779 268.049 113.427 268.583 113.128C269.116 112.808 269.724 112.563 270.407 112.392C271.089 112.2 271.847 112.104 272.679 112.104C274.62 112.104 276.156 112.595 277.287 113.576C278.439 114.557 279.015 115.923 279.015 117.672V126.76H281.319V129H279.559ZM271.943 127.24C272.604 127.24 273.201 127.165 273.735 127.016C274.289 126.845 274.769 126.632 275.175 126.376C275.58 126.099 275.889 125.779 276.103 125.416C276.337 125.032 276.455 124.627 276.455 124.2V121.48H272.935C271.399 121.48 270.279 121.693 269.575 122.12C268.871 122.547 268.519 123.165 268.519 123.976V124.648C268.519 125.501 268.817 126.152 269.415 126.6C270.033 127.027 270.876 127.24 271.943 127.24ZM293.082 129.384C291.888 129.384 290.821 129.181 289.882 128.776C288.965 128.349 288.186 127.763 287.546 127.016C286.906 126.269 286.416 125.363 286.074 124.296C285.754 123.229 285.594 122.045 285.594 120.744C285.594 119.443 285.765 118.259 286.106 117.192C286.448 116.125 286.938 115.219 287.578 114.472C288.218 113.704 288.997 113.117 289.914 112.712C290.832 112.307 291.877 112.104 293.05 112.104C294.65 112.104 295.952 112.456 296.954 113.16C297.957 113.864 298.693 114.781 299.162 115.912L297.114 117C296.816 116.147 296.314 115.485 295.61 115.016C294.928 114.547 294.074 114.312 293.05 114.312C292.304 114.312 291.632 114.44 291.034 114.696C290.458 114.931 289.968 115.272 289.562 115.72C289.157 116.168 288.848 116.701 288.634 117.32C288.442 117.939 288.346 118.611 288.346 119.336V122.152C288.346 122.877 288.442 123.549 288.634 124.168C288.848 124.787 289.157 125.32 289.562 125.768C289.968 126.216 290.469 126.568 291.066 126.824C291.664 127.059 292.346 127.176 293.114 127.176C294.224 127.176 295.141 126.92 295.866 126.408C296.592 125.896 297.168 125.192 297.594 124.296L299.418 125.544C298.928 126.653 298.16 127.571 297.114 128.296C296.09 129.021 294.746 129.384 293.082 129.384ZM305.454 105.32H308.014V120.264H308.142L311.022 117.544L316.526 112.488H319.662L312.814 118.952L320.462 129H317.294L310.862 120.424L308.014 123.016V129H305.454V105.32ZM331.169 129.384C329.975 129.384 328.897 129.181 327.937 128.776C326.999 128.371 326.188 127.795 325.505 127.048C324.844 126.28 324.332 125.373 323.969 124.328C323.607 123.261 323.425 122.077 323.425 120.776C323.425 119.453 323.607 118.259 323.969 117.192C324.353 116.125 324.876 115.219 325.537 114.472C326.199 113.704 326.988 113.117 327.905 112.712C328.844 112.307 329.879 112.104 331.009 112.104C332.119 112.104 333.121 112.307 334.017 112.712C334.935 113.117 335.713 113.683 336.353 114.408C336.993 115.112 337.484 115.955 337.825 116.936C338.167 117.917 338.337 118.995 338.337 120.168V121.384H326.113V122.152C326.113 122.877 326.231 123.549 326.465 124.168C326.7 124.787 327.031 125.32 327.457 125.768C327.905 126.216 328.439 126.568 329.057 126.824C329.697 127.059 330.401 127.176 331.169 127.176C332.279 127.176 333.239 126.92 334.049 126.408C334.86 125.896 335.479 125.192 335.905 124.296L337.793 125.576C337.303 126.685 336.481 127.603 335.329 128.328C334.199 129.032 332.812 129.384 331.169 129.384ZM331.009 114.216C330.305 114.216 329.655 114.344 329.057 114.6C328.46 114.856 327.937 115.208 327.489 115.656C327.063 116.104 326.721 116.637 326.465 117.256C326.231 117.853 326.113 118.515 326.113 119.24V119.464H335.585V119.112C335.585 118.387 335.468 117.725 335.233 117.128C335.02 116.531 334.711 116.019 334.305 115.592C333.921 115.144 333.441 114.803 332.865 114.568C332.311 114.333 331.692 114.216 331.009 114.216ZM342.933 126.824H347.765V114.664H342.933V112.488H350.325V116.648H350.485C350.826 115.347 351.466 114.333 352.405 113.608C353.365 112.861 354.581 112.488 356.053 112.488H358.357V115.048H355.253C353.781 115.048 352.586 115.475 351.669 116.328C350.773 117.181 350.325 118.301 350.325 119.688V126.824H356.725V129H342.933V126.824Z" fill="#888888"/>
</svg>
