<svg width="200" height="200" viewBox="0 0 200 200" fill="none" xmlns="http://www.w3.org/2000/svg">
  <path d="M154 0H46C20.5949 0 0 20.5949 0 46V154C0 179.405 20.5949 200 46 200H154C179.405 200 200 179.405 200 154V46C200 20.5949 179.405 0 154 0Z" fill="#085041"/>
  <path d="M79.4788 43.6184C79.4788 43.6184 59.1545 75.492 71.8092 110.261C82.0698 138.451 104.885 151.431 118.127 149.804C129.317 142.538 138.451 117.93 128.191 89.7394C115.536 54.9707 79.4788 43.6184 79.4788 43.6184Z" fill="white"/>
  <path d="M80.5049 46.4375L117.101 146.985" stroke="#085041" stroke-width="3.5" stroke-linecap="round"/>
  <path d="M93.1596 81.2061C86.4436 97.8396 82.8598 113.333 82.4084 127.686" stroke="#085041" stroke-width="1.8" stroke-linecap="round"/>
  <path d="M93.1596 81.2061C108.996 89.6311 121.7 99.1962 131.272 109.901" stroke="#085041" stroke-width="1.8" stroke-linecap="round"/>
  <path d="M137 170C140.866 170 144 166.866 144 163C144 159.134 140.866 156 137 156C133.134 156 130 159.134 130 163C130 166.866 133.134 170 137 170Z" fill="#5DCAA5"/>
</svg>
